<?xml version="1.0" standalone="no"?>
<!DOCTYPE svg PUBLIC "-//W3C//DTD SVG 20010904//EN"
 "http://www.w3.org/TR/2001/REC-SVG-20010904/DTD/svg10.dtd">
<svg version="1.0" xmlns="http://www.w3.org/2000/svg"
 width="512.000000pt" height="512.000000pt" viewBox="0 0 512.000000 512.000000"
 preserveAspectRatio="xMidYMid meet">

<g transform="translate(0.000000,512.000000) scale(0.100000,-0.100000)"
fill="#000000" stroke="none">
<path d="M1360 3087 c0 -20 57 -105 80 -119 28 -18 25 -30 -13 -53 -30 -19
-52 -75 -29 -75 5 0 39 14 75 30 79 36 86 36 138 10 62 -32 85 0 29 40 l-30
21 35 33 c60 57 41 80 -47 55 -35 -9 -43 -7 -106 31 -69 40 -132 53 -132 27z"/>
<path d="M2622 3063 c-4 -10 -5 -72 -3 -138 2 -66 4 -160 5 -210 l1 -90 -98 4
c-96 3 -99 3 -128 -25 -16 -15 -29 -33 -29 -40 0 -8 32 -22 73 -34 39 -12 99
-30 132 -40 l60 -18 10 -198 c9 -163 14 -206 30 -238 63 -127 99 -37 100 251
0 104 5 186 10 191 6 5 38 19 73 33 45 17 62 29 62 42 0 10 -3 16 -7 14 -8 -5
-131 18 -138 25 -5 4 -14 67 -25 173 -26 251 -35 285 -77 304 -33 15 -42 14
-51 -6z"/>
<path d="M4680 2906 c-17 -30 -35 -80 -40 -110 -5 -31 -22 -104 -38 -163 -43
-156 -48 -182 -76 -348 -44 -265 -44 -375 -1 -375 17 0 24 23 95 325 57 239
119 455 130 455 4 0 13 -28 19 -62 7 -35 30 -139 51 -233 21 -93 41 -197 45
-230 4 -33 13 -67 20 -75 7 -8 24 -38 39 -67 33 -66 82 -123 107 -123 16 0 19
7 19 43 -1 54 -9 89 -59 272 -53 192 -104 450 -97 489 4 22 0 40 -14 61 -11
17 -20 44 -20 61 0 22 -5 33 -19 37 -10 2 -21 17 -25 33 -11 43 -35 64 -72 64
-29 0 -36 -6 -64 -54z"/>
<path d="M425 2896 c-14 -11 -16 -15 -5 -16 8 0 10 -3 5 -9 -15 -14 -248 -131
-261 -131 -20 0 -46 -38 -42 -62 2 -15 11 -24 25 -26 13 -2 39 -22 59 -45 46
-53 151 -268 160 -327 4 -28 16 -54 31 -67 12 -12 23 -31 23 -41 0 -26 25 -45
47 -38 10 4 31 17 47 30 25 21 27 26 16 47 -7 13 -20 31 -29 39 -9 8 -37 60
-61 115 -24 55 -66 141 -92 191 -26 50 -48 98 -48 106 0 22 160 139 181 133
11 -4 27 7 47 30 25 28 30 40 23 57 -7 19 -17 24 -57 26 -32 2 -56 -2 -69 -12z"/>
<path d="M782 2835 c-18 -21 -20 -29 -11 -52 18 -46 2 -266 -22 -312 -21 -41
-17 -71 11 -71 15 0 18 -14 24 -92 8 -110 22 -179 41 -204 25 -35 35 -1 43
152 7 140 8 149 26 146 43 -8 136 -79 231 -177 106 -108 128 -125 169 -125 35
0 33 21 -6 78 -89 131 -201 249 -287 300 -30 18 -31 21 -15 30 28 14 134 49
174 57 79 15 142 58 125 85 -3 5 -29 16 -58 25 -28 10 -69 28 -89 41 -21 13
-40 24 -43 24 -3 0 -35 14 -70 30 -35 17 -69 30 -76 30 -6 0 -38 14 -71 30
-32 17 -62 30 -66 30 -5 0 -18 -11 -30 -25z m149 -136 c61 -19 159 -62 159
-69 0 -3 -44 -21 -97 -39 -92 -30 -98 -31 -110 -15 -7 10 -13 44 -13 76 0 64
3 66 61 47z"/>
<path d="M3842 2840 c-7 -11 -20 -20 -29 -20 -15 0 -15 -1 0 -18 14 -15 17
-42 17 -156 0 -124 -2 -140 -21 -166 -27 -36 -20 -77 14 -82 21 -3 22 -8 28
-123 7 -123 15 -161 42 -183 20 -17 25 6 36 176 5 73 11 135 14 139 14 13 120
-69 239 -184 70 -68 133 -123 142 -123 8 0 21 -3 29 -6 8 -3 17 2 21 12 5 13
-11 45 -51 103 -76 112 -111 150 -205 223 -43 33 -78 64 -78 68 0 12 62 38
131 56 123 30 156 43 167 70 11 22 9 25 -16 35 -68 25 -90 34 -127 55 -22 12
-87 41 -145 64 -58 23 -120 50 -138 61 -42 24 -54 24 -70 -1z m153 -145 c55
-17 145 -57 145 -65 0 -7 -129 -52 -167 -57 -31 -5 -33 -3 -33 25 0 17 -4 34
-10 37 -15 9 -13 75 3 75 6 0 35 -7 62 -15z"/>
<path d="M1975 2762 c-14 -22 -30 -64 -35 -95 -5 -31 -13 -64 -19 -75 -17 -33
-71 -350 -71 -422 0 -130 21 -87 89 185 36 140 68 255 72 255 4 0 13 -33 19
-72 7 -40 19 -93 27 -118 7 -25 18 -86 23 -136 5 -49 12 -98 16 -109 7 -18 8
-18 15 1 6 17 8 17 17 -8 13 -33 50 -68 72 -68 14 0 10 28 -32 203 -27 111
-52 245 -57 299 -7 94 -9 97 -50 147 -24 28 -47 51 -52 51 -5 0 -20 -17 -34
-38z"/>
<path d="M3160 2770 c0 -17 25 -128 55 -248 30 -119 57 -242 60 -273 6 -54 12
-67 62 -127 20 -26 22 -26 41 -9 10 10 26 34 34 55 43 104 127 555 114 608
-15 59 -33 18 -90 -208 -62 -245 -73 -284 -82 -276 -2 3 -22 91 -44 195 -38
185 -57 238 -103 291 -29 31 -47 28 -47 -8z"/>
<path d="M1498 2693 c-22 -37 -23 -44 -22 -238 2 -209 15 -318 41 -347 34 -38
38 -22 41 150 2 92 7 228 12 302 5 84 5 141 -1 152 -16 29 -45 21 -71 -19z"/>
</g>
</svg>
