<?xml version="1.0" encoding="utf-8"?>
<!-- Generator: Adobe Illustrator 28.2.0, SVG Export Plug-In . SVG Version: 6.00 Build 0)  -->
<svg version="1.1" id="Camada_3" xmlns="http://www.w3.org/2000/svg" xmlns:xlink="http://www.w3.org/1999/xlink" x="0px" y="0px"
	 viewBox="0 0 1366 768" style="enable-background:new 0 0 1366 768;" xml:space="preserve">
<style type="text/css">
	.st0{stroke:#000000;stroke-miterlimit:10;}
</style>
<path class="st0" d="M515.48,253.65c-12.16-3.69-23.71,2.26-26.52,10.99c-2.8,8.71,4.13,17.03,4.6,17.58c0,2.09,0,4.17,0,6.26
	c-6.06-1.45-26.12-5.45-48.13,4.7c-24.04,11.08-33.99,31.46-36.39,36.78c15.24-13.91,29.32-19.01,37.57-21.13
	c13.19-3.39,17.48-0.7,19.17,0.78c0.87,0.76,2.12,2.15,4.7,14.48c1.87,8.97,2.85,13.74,3.13,20.74c0.22,5.35-0.05,9.88-0.39,13.25
	c-5.71,4.92-15,14.2-21.91,28.62c-7.23,15.09-8.47,28.76-8.61,36.39c-5.31-0.09-11.37-0.51-18-1.57
	c-7.97-1.26-14.94-3.14-20.74-5.09c-1.59,1.5-4.99,5.13-6.65,10.96c-1.74,6.11-0.6,11.21,0,13.3c1.22-1.22,2.59-2.77,3.91-4.7
	c1.68-2.44,2.78-4.76,3.52-6.65c2.32,1.58,5.63,3.7,9.78,5.87c9.39,4.91,18.54,9.69,28.17,9.39c17.55-0.54,29.93-17.7,35.22-25.04
	c5.51-7.65,8.51-14.95,10.17-19.96c14.22-0.13,28.43-0.26,42.65-0.39v8.61l16.04-0.39v12.52l11.35,0.39v15.26h8.61v24.26h31.7V449.7
	l-16.04,0.39v-15.26l-5.48-0.39l0.39-14.87l-6.26-0.39v-16.43l-6.65-0.39L564,389.83h-9.78l-0.39-10.96h-14.09l0.39-8.61h-24.65V328
	l32.09,0.39v-10.96h10.57l0.39-17.61h10.17v-25.04h-12.13l-0.39,21.52l-9.78-0.39L546,306.87l-30.91-0.39l0.39-10.57h-10.96
	l0.39-10.96l10.96,0.39L515.48,253.65z"/>
<polyline class="st0" points="599.61,327.35 614.87,327.35 614.87,335.57 627.91,335.57 627.91,315.09 614.87,315.09 614.87,307.65 
	643.83,307.65 643.83,343.26 599.61,343.26 599.61,327.35 "/>
<path class="st0" d="M664.96,307.65v35.61h42.26v-35.61H664.96z M692.74,335.57h-13.7v-20.48h13.7V335.57z"/>
<polyline class="st0" points="743.74,335.57 757.57,335.57 757.57,327.48 750.65,327.48 750.65,321.61 771.39,321.61 771.39,343.26 
	727.96,343.26 727.96,307.65 771.39,307.65 771.39,315.09 743.74,315.09 743.74,335.57 "/>
<path class="st0" d="M793.7,307.65v35.61h42.65v-35.61H793.7z M822.65,335.57h-15.13v-20.48h15.13V335.57z"/>
<polygon class="st0" points="857.48,307.65 901.7,307.65 901.7,315.09 872.61,315.09 872.61,322.26 901.7,322.26 901.7,343.26 
	857.48,343.26 857.48,334.39 885.39,334.39 885.52,327.48 857.48,327.48 "/>
<polygon class="st0" points="857.48,353.43 901.7,353.43 901.7,360.87 872.61,360.87 872.61,368.04 901.7,368.04 901.7,389.04 
	857.48,389.04 857.48,380.17 885.39,380.17 885.52,373.26 857.48,373.26 "/>
<path class="st0" d="M635.22,360.87l0.13-7.83h-35.74v36.39h35.22V382h9v-21.13H635.22z M629.28,381.47h-15.13v-20.48h15.13V381.47z
	"/>
<rect x="649.3" y="353.04" class="st0" width="15.65" height="36.39"/>
<rect x="718.96" y="353.04" class="st0" width="15.65" height="36.39"/>
<rect x="837.13" y="353.04" class="st0" width="15.65" height="36.39"/>
<polygon class="st0" points="670.04,353.04 712.3,353.04 712.3,360.87 684.13,360.87 684.13,382 698.74,382 698.74,374.57 
	690.39,374.57 690.39,367.13 712.3,367.13 712.3,389.43 670.04,389.43 "/>
<polygon class="st0" points="740.09,353.04 780.91,353.04 780.91,360.87 768.65,360.87 768.65,389.43 754.57,389.43 754.57,360.87 
	740.09,360.87 "/>
<path class="st0" d="M789.78,353.04v36.39h13.31v-14.86h14.08v14.86h12.53v-36.39H789.78z M817.17,367.13h-14.08v-6.26h14.08V367.13
	z"/>
<path class="st0" d="M599.61,401.17v19.31c0,1.86,0.68,3.69,2.02,4.97c0.13,0.13,0.27,0.25,0.42,0.37c1.92,1.55,4.03,1.58,4.6,1.57
	c2.74,0,5.48,0,8.22,0c0.53,0.02,2.73,0.06,4.7-1.57c0.15-0.12,0.29-0.25,0.42-0.37c1.29-1.26,1.93-3.05,1.93-4.85v-19.43h-7.04
	v18.1c-0.74,1.56-2.29,2.59-4.01,2.64c-1.75,0.06-3.38-0.9-4.21-2.45v-18.29H599.61z"/>
<polygon class="st0" points="660.26,427.4 660.26,401.17 664.96,401.17 674.84,417.71 676.6,417.8 676.6,401.17 681.98,401.17 
	681.98,427.4 674.84,427.39 664.96,410.17 664.96,427.4 "/>
<rect x="719.74" y="401.17" class="st0" width="8.22" height="26.22"/>
<path class="st0" d="M784.3,401.17h-8.66c-5.81,0-10.52,4.71-10.52,10.52v3.38c0,6.81,5.52,12.33,12.33,12.33h6.84v-5.48h-8.05
	c-1.13,0-2.24-0.42-3.05-1.21c-1.89-1.86-2.93-4.44-2.79-7.1c0.14-2.61,1.37-4.53,2.48-5.76c0.93-1.02,2.27-1.58,3.66-1.58h7.75
	V401.17z"/>
<path class="st0" d="M836.35,401.17h-6.65l-7.05,26.22h5.61l1.44-5.48h6.65l1.43,5.48h5.94L836.35,401.17z M829.7,414.29l2.02-8.03
	h1.46l1.67,8.03H829.7z"/>
<path class="st0" d="M882.13,427.39v-26.22h11.15c4.65,0,8.41,3.77,8.41,8.41v0c0,4.11-3.33,7.43-7.43,7.43h-6.95l0.1,10.37H882.13z
	"/>
<path class="st0" d="M887.8,406.26h3.4c1.93,0,3.5,1.57,3.5,3.5l0,0c0,1.69-1.37,3.06-3.06,3.06h-3.84V406.26z"/>
</svg>
