<?xml version="1.0" standalone="no"?>
<!DOCTYPE svg PUBLIC "-//W3C//DTD SVG 20010904//EN"
 "http://www.w3.org/TR/2001/REC-SVG-20010904/DTD/svg10.dtd">
<svg version="1.0" xmlns="http://www.w3.org/2000/svg"
 width="900.000000pt" height="520.000000pt" viewBox="0 0 900.000000 520.000000"
 preserveAspectRatio="xMidYMid meet">

<g transform="translate(0.000000,520.000000) scale(0.100000,-0.100000)"
fill="#000000" stroke="none">
<path d="M4435 4190 c-3 -5 -19 -7 -35 -3 -20 4 -30 1 -30 -7 0 -8 -10 -9 -30
-5 -26 6 -30 4 -30 -15 0 -20 4 -21 48 -15 107 13 112 15 112 35 0 21 -24 27
-35 10z"/>
<path d="M4590 4175 c0 -24 3 -25 60 -27 33 -1 68 -2 77 -2 10 -1 19 7 21 17
3 16 -1 18 -26 12 -19 -4 -33 -2 -37 5 -4 7 -18 9 -30 6 -13 -3 -27 -2 -30 4
-12 20 -35 10 -35 -15z"/>
<path d="M4154 4135 c-5 -11 -14 -15 -29 -11 -14 4 -28 -1 -39 -13 -10 -11
-25 -17 -35 -14 -23 6 -36 -13 -22 -31 17 -20 156 32 156 59 0 24 -23 32 -31
10z"/>
<path d="M4874 4136 c-8 -21 -12 -18 68 -50 80 -31 88 -32 88 -6 0 17 -5 19
-25 14 -18 -4 -27 -1 -31 10 -4 11 -15 16 -29 14 -13 -2 -32 6 -44 16 -19 17
-21 17 -27 2z"/>
<path d="M4365 4133 c-47 -12 -36 -23 23 -23 48 0 62 3 62 15 0 15 -40 19 -85
8z"/>
<path d="M4615 4129 c-4 -5 5 -9 18 -9 14 0 40 -3 58 -6 23 -4 29 -2 19 4 -23
14 -89 22 -95 11z"/>
<path d="M4477 4103 c-7 -12 -7 -75 -1 -105 5 -26 9 -28 54 -28 l48 0 4 63 c3
34 3 65 1 70 -2 4 -26 7 -53 7 -27 0 -51 -3 -53 -7z"/>
<path d="M4372 4092 c-26 -8 -26 -8 -17 -79 6 -49 8 -53 33 -53 56 0 72 10 72
45 0 18 -3 47 -6 64 -5 26 -11 31 -33 30 -14 -1 -36 -4 -49 -7z"/>
<path d="M4604 4086 c-3 -7 -4 -38 -2 -67 l3 -54 40 -6 c22 -3 -12 -5 -75 -5
-63 1 -146 -3 -185 -7 -43 -5 -65 -4 -56 1 8 6 11 20 8 38 -3 16 -8 45 -12 65
l-5 37 -43 -9 c-69 -15 -67 -12 -50 -76 8 -32 19 -64 25 -70 8 -10 6 -13 -5
-13 -10 0 -21 19 -32 53 -25 80 -25 80 -75 62 -24 -8 -45 -13 -48 -11 -10 10
11 26 48 36 22 6 40 15 40 21 0 6 -5 7 -12 2 -7 -4 -15 -8 -18 -8 -3 -1 -21
-7 -41 -14 -35 -13 -36 -16 -28 -48 4 -19 19 -58 33 -86 17 -34 21 -54 14 -58
-6 -4 -7 -12 -4 -18 5 -8 18 -7 44 4 l37 15 -28 -21 c-15 -11 -24 -25 -21 -30
4 -6 11 -6 19 1 8 7 27 9 43 5 21 -4 36 0 55 15 20 16 35 20 57 15 21 -5 39
-2 55 9 30 20 49 20 65 1 11 -13 8 -15 -21 -15 -66 0 -249 -57 -249 -77 0 -8
7 -27 15 -42 l14 -28 98 29 c159 47 359 38 518 -22 24 -9 27 -7 41 25 8 20 12
40 9 45 -12 20 -187 69 -249 70 -37 0 -39 1 -20 15 25 19 48 19 65 -1 10 -12
23 -14 52 -10 30 5 44 2 58 -10 12 -10 34 -17 56 -16 20 1 42 -3 50 -9 10 -9
13 -8 13 4 0 9 -8 21 -17 26 -14 8 -11 9 13 5 17 -3 34 -2 38 4 7 12 -71 50
-139 68 -40 10 -43 12 -16 11 32 -2 34 1 47 43 23 77 21 85 -36 96 l-50 10 -6
-35 c-3 -20 -9 -48 -14 -63 -7 -22 -5 -30 8 -38 14 -8 12 -9 -12 -10 -20 0
-27 4 -23 14 3 8 9 41 13 74 l6 59 -32 7 c-49 9 -70 7 -76 -8z m-301 -153 c-7
-2 -19 -2 -25 0 -7 3 -2 5 12 5 14 0 19 -2 13 -5z m342 -8 c28 -4 61 -14 75
-22 l25 -14 -25 6 c-147 35 -327 24 -495 -30 -19 -6 -19 -6 1 12 19 17 141 46
234 55 40 5 130 1 185 -7z m-455 -19 c0 -3 -4 -8 -10 -11 -5 -3 -10 -1 -10 4
0 6 5 11 10 11 6 0 10 -2 10 -4z m370 -31 c11 -13 7 -15 -30 -15 -37 0 -41 2
-30 15 7 8 20 15 30 15 10 0 23 -7 30 -15z m267 -1 c-3 -3 -12 -4 -19 -1 -8 3
-5 6 6 6 11 1 17 -2 13 -5z"/>
<path d="M4880 4076 c0 -7 85 -46 101 -46 20 0 7 21 -18 31 -39 15 -83 23 -83
15z"/>
<path d="M3599 4008 c-1 -7 -1 -20 0 -28 0 -8 -22 -28 -50 -45 -44 -26 -50
-33 -47 -59 2 -21 12 -34 33 -46 17 -9 34 -26 40 -38 6 -14 16 -20 25 -17 10
3 10 1 -3 -9 -10 -8 -15 -20 -11 -30 5 -14 3 -15 -21 -6 -59 23 -119 -36 -78
-77 16 -16 18 -32 16 -108 -2 -50 -9 -107 -18 -128 -8 -20 -15 -43 -14 -50 0
-6 10 11 21 38 13 31 23 83 27 140 6 82 5 91 -14 107 -17 15 -18 19 -5 28 35
23 73 3 48 -27 -9 -11 -12 -38 -10 -87 4 -75 4 -117 1 -204 -2 -59 6 -75 26
-49 12 17 15 15 37 -29 32 -65 48 -68 48 -10 0 54 9 58 33 16 19 -32 60 -57
154 -92 40 -14 74 -38 111 -75 29 -29 55 -53 58 -53 2 0 4 95 4 211 0 116 4
218 9 228 19 35 -41 199 -82 225 -22 14 -31 2 -17 -24 15 -28 3 -162 -12 -136
-5 10 -7 41 -4 70 3 39 0 59 -11 76 -13 18 -13 24 -2 30 11 7 9 16 -7 47 -16
31 -27 40 -63 47 -46 10 -47 13 -26 97 11 44 -16 61 -85 53 -47 -5 -58 -3 -63
10 -7 19 -46 22 -48 4z m99 -47 c16 -10 12 -73 -4 -78 -6 -2 -14 6 -17 19 -3
13 -9 33 -12 46 -8 23 8 30 33 13z m72 -20 c0 -16 -7 -34 -15 -41 -13 -10 -14
-6 -12 29 2 47 27 58 27 12z m-147 -13 c3 -13 9 -33 12 -45 9 -30 -14 -31 -38
-3 -20 24 -22 41 -5 58 17 17 25 15 31 -10z m-33 -90 c0 -16 -27 -7 -49 16
-33 35 -17 49 19 18 17 -15 30 -30 30 -34z m120 -77 c-63 -7 -80 -15 -81 -39
0 -11 -2 -13 -6 -4 -3 7 3 22 13 33 13 15 29 19 73 18 l56 -2 -55 -6z m151
-44 c-2 -13 -51 -56 -51 -44 0 19 30 59 42 55 5 -2 9 -7 9 -11z m-247 -80 l-6
-64 38 -31 c21 -18 35 -32 31 -32 -11 0 -60 32 -69 45 -14 19 -6 145 8 145 3
0 2 -28 -2 -63z m133 -9 c13 -12 23 -32 23 -45 0 -18 5 -23 28 -23 15 0 34 5
42 10 13 8 12 13 -4 42 l-19 33 22 -19 c18 -17 21 -26 15 -63 -5 -35 -3 -44
11 -49 9 -4 21 -2 28 5 19 19 27 12 27 -24 0 -43 -29 -75 -67 -74 l-28 1 30 7
c29 6 59 46 49 63 -10 16 -59 7 -94 -17 -42 -29 -70 -25 -105 16 l-20 23 29
-22 c35 -27 77 -28 100 -3 27 29 17 55 -22 59 -22 2 -32 8 -32 20 0 10 -7 28
-16 41 -13 18 -23 22 -45 17 -22 -4 -29 -2 -29 9 0 23 50 18 77 -7z m84 -348
c5 0 9 12 9 26 l0 26 34 -26 c40 -30 56 -33 56 -8 1 30 29 -29 30 -62 l0 -29
-45 42 c-52 48 -59 50 -51 16 4 -14 4 -25 0 -25 -17 0 -63 36 -78 60 -24 41
-20 46 10 11 14 -17 30 -31 35 -31z"/>
<path d="M5413 4004 c-5 -13 -16 -15 -69 -9 -62 6 -64 6 -75 -19 -9 -20 -9
-32 -1 -51 7 -14 12 -32 12 -40 0 -18 -39 -59 -48 -50 -4 3 0 10 7 14 10 6 10
10 2 16 -20 12 -41 -15 -41 -52 0 -21 -4 -32 -10 -28 -6 4 -9 3 -8 -2 1 -4 -9
-30 -23 -58 -24 -47 -25 -56 -18 -145 6 -85 9 -96 33 -115 31 -25 30 -44 -8
-150 -28 -76 -36 -180 -13 -173 7 3 14 31 18 69 3 35 13 80 23 99 9 19 14 26
10 15 -3 -11 -8 -41 -11 -67 -6 -53 6 -63 27 -23 27 50 19 17 -9 -42 -17 -33
-65 -103 -108 -154 l-78 -94 -3 98 c-2 87 -5 97 -18 86 -12 -10 -18 -8 -31 12
-32 48 -131 135 -190 166 -234 125 -541 55 -687 -156 -16 -23 -33 -41 -38 -41
-5 0 -7 81 -6 183 l3 182 475 0 475 0 6 -160 5 -160 0 165 -1 165 -486 3 -487
2 -3 -27 c-2 -16 -4 -137 -4 -270 0 -134 -2 -243 -6 -243 -3 0 -19 19 -34 43
-67 101 -115 146 -200 187 -46 21 -86 44 -90 49 -13 22 -34 11 -37 -20 l-3
-32 -31 29 c-17 16 -35 38 -41 48 -10 18 -13 16 -50 -22 -43 -45 -69 -55 -60
-22 8 31 -7 32 -21 2 -21 -49 -73 -102 -147 -152 -76 -52 -95 -68 -119 -102
-15 -21 -16 -21 -36 -3 -47 42 -16 113 104 235 51 52 103 114 115 137 38 76
23 180 -31 210 -49 27 -123 8 -169 -43 -27 -31 -82 -124 -76 -131 2 -2 15 6
30 17 l25 20 -5 -21 c-3 -12 -19 -27 -35 -34 -24 -10 -27 -13 -13 -19 29 -11
80 -6 103 9 13 10 28 39 38 71 9 31 25 65 36 76 17 17 22 18 41 5 23 -15 33
-61 22 -104 -3 -14 -57 -77 -119 -141 -62 -65 -120 -131 -129 -147 -42 -82
-30 -154 36 -210 41 -35 42 -37 45 -108 l4 -72 -51 -50 c-47 -46 -51 -53 -51
-97 0 -36 4 -48 15 -48 8 0 15 6 15 14 0 7 8 20 17 27 15 13 16 12 8 -11 -15
-47 -18 -209 -4 -226 22 -26 129 -75 150 -69 10 4 19 10 19 15 0 5 12 10 28
12 19 2 27 9 27 22 0 15 -15 24 -62 40 -86 29 -96 42 -97 118 -1 80 16 105
110 161 73 45 97 78 126 177 14 50 54 126 71 137 7 4 8 0 3 -13 -22 -52 -28
-76 -22 -81 3 -3 27 5 53 19 27 14 73 33 103 43 46 15 107 41 118 50 2 2 -9
20 -23 41 -22 32 -26 47 -22 87 7 73 20 77 55 15 18 -32 46 -65 70 -81 84 -55
123 -115 141 -212 14 -78 37 -109 84 -113 33 -3 37 -1 37 20 0 13 -7 47 -14
76 l-14 52 129 0 c118 0 149 -7 118 -26 -6 -3 -9 -15 -6 -25 3 -11 2 -19 -3
-19 -4 0 -8 -36 -9 -80 l-1 -80 45 0 46 0 -7 78 c-4 42 -11 79 -16 80 -5 2 -4
10 2 17 7 9 6 16 -5 25 -8 7 -15 16 -15 21 0 5 141 9 315 9 257 0 315 -2 315
-13 0 -8 -6 -35 -14 -61 -18 -60 -12 -76 29 -76 44 0 61 23 84 113 19 78 55
152 87 178 9 8 58 39 107 69 57 35 103 71 124 98 18 24 33 37 33 29 0 -23 -57
-100 -95 -127 -19 -14 -35 -28 -35 -31 0 -8 52 -43 140 -95 36 -21 79 -51 95
-66 17 -15 34 -28 38 -28 12 0 -2 60 -19 87 -20 31 -17 39 5 19 24 -21 58 -93
78 -161 23 -78 47 -108 118 -150 90 -52 110 -83 109 -163 -1 -76 -9 -85 -95
-117 -47 -17 -64 -28 -64 -41 0 -13 9 -20 28 -22 16 -2 31 -10 34 -18 3 -8 11
-14 17 -14 25 0 137 62 147 82 11 21 7 168 -6 218 l-6 25 23 -27 c13 -16 27
-28 31 -28 4 0 7 21 7 47 0 43 -4 52 -50 98 -52 53 -55 61 -52 150 2 45 6 52
38 74 69 48 87 125 47 206 -15 29 -69 95 -128 155 -56 58 -108 115 -114 127
-6 12 -11 42 -11 67 0 52 24 75 59 57 18 -10 51 -78 51 -105 0 -23 59 -66 88
-65 33 1 77 17 50 18 -26 1 -65 42 -87 92 -29 64 -43 78 -87 84 -43 6 -52 2
-77 -35 -43 -62 -8 -141 107 -244 126 -112 172 -193 152 -269 -12 -47 -86
-101 -86 -62 0 8 4 15 10 15 15 0 40 56 40 90 0 47 -32 99 -104 170 -69 67
-127 144 -145 193 -17 45 -13 79 14 120 22 31 31 37 61 37 55 0 96 -25 118
-70 11 -22 22 -40 26 -40 4 0 12 -11 18 -25 6 -14 19 -25 28 -25 13 0 12 4 -5
26 -12 15 -21 32 -21 38 0 21 -63 88 -96 102 -96 40 -164 -8 -164 -116 0 -72
28 -119 137 -232 121 -124 145 -179 103 -229 -18 -22 -21 -23 -30 -7 -19 31
-73 78 -125 108 -88 51 -133 97 -175 180 -23 45 -59 97 -88 126 -27 27 -55 59
-61 71 -15 30 0 66 48 115 29 29 40 49 46 84 3 25 9 43 12 40 10 -9 43 36 43
58 0 29 -10 40 -48 60 l-33 17 33 22 c18 13 34 31 36 41 5 22 -22 52 -65 73
-26 12 -33 21 -33 44 0 22 -5 29 -20 29 -11 0 -23 -7 -27 -16z m-96 -69 c1
-29 -2 -43 -8 -39 -17 10 -27 48 -17 67 15 28 23 19 25 -28z m78 18 c-4 -10
-10 -30 -12 -45 -7 -38 -33 -25 -33 17 0 32 9 43 39 44 9 1 11 -5 6 -16z m78
-25 c7 -11 5 -23 -9 -41 -24 -33 -49 -36 -39 -4 3 12 9 32 12 45 6 25 21 25
36 0z m47 -73 c-12 -14 -50 -21 -50 -10 0 3 12 17 28 30 21 18 28 20 30 9 2
-8 -2 -21 -8 -29z m-291 -47 c1 -5 -3 -8 -9 -8 -5 0 -10 12 -9 28 0 24 1 25 9
7 5 -11 9 -23 9 -27z m194 0 c22 -11 37 -21 35 -24 -4 -3 -26 5 -133 47 -12 4
-4 5 20 2 22 -3 57 -15 78 -25z m-119 -33 c9 -14 14 -25 12 -25 -3 0 -16 11
-30 25 -15 15 -20 25 -12 25 8 0 21 -11 30 -25z m91 -15 c8 -13 -5 -13 -25 0
-13 8 -13 10 2 10 9 0 20 -4 23 -10z m146 -20 c15 -9 17 -15 9 -30 -6 -11 -19
-20 -30 -20 -22 0 -30 -10 -36 -45 -2 -14 -6 -37 -9 -52 -4 -26 -20 -43 -42
-43 -6 0 -38 -21 -72 -46 -51 -38 -66 -45 -90 -39 -23 5 -32 2 -45 -17 -13
-18 -16 -19 -16 -5 0 10 -10 21 -23 26 -28 11 -34 51 -8 51 30 0 43 24 30 53
-10 22 -8 30 10 53 26 33 26 39 0 65 -23 23 -17 39 9 23 23 -15 28 -77 8 -94
-25 -20 -20 -49 10 -56 27 -7 44 7 44 37 0 26 35 51 66 47 41 -5 44 -29 2 -26
-29 3 -35 -1 -51 -34 -14 -29 -25 -38 -43 -38 -35 0 -43 -29 -15 -52 35 -27
54 -22 112 27 29 25 56 45 60 45 11 0 32 58 26 73 -4 12 14 61 36 95 10 15 32
15 58 2z m-371 -127 c0 -13 -4 -23 -10 -23 -5 0 -10 17 -10 38 0 27 3 33 10
22 5 -8 10 -25 10 -37z m-1870 -93 c-14 -4 -34 -8 -45 -9 -16 -1 -17 1 -5 9 8
5 29 9 45 9 29 -1 29 -1 5 -9z m-76 -24 c-3 -8 -12 -17 -20 -20 -8 -3 -14 -12
-14 -21 0 -8 -5 -15 -10 -15 -13 0 2 30 26 54 19 20 25 20 18 2z m166 -68 c0
-62 -25 -101 -141 -224 -83 -87 -111 -123 -119 -155 -15 -53 -5 -104 21 -123
12 -8 19 -20 17 -26 -5 -17 -55 30 -68 64 -25 66 5 122 139 261 87 90 109 119
120 157 10 36 11 55 2 79 -16 47 -13 57 9 30 13 -14 20 -38 20 -63z m1281
-103 c68 -19 138 -58 191 -104 50 -45 115 -121 101 -120 -4 0 -24 22 -45 48
-38 51 -144 127 -215 154 -159 62 -350 30 -489 -81 -29 -22 -65 -59 -80 -81
-16 -22 -33 -41 -37 -41 -15 0 57 91 98 124 140 113 310 149 476 101z m-28
-35 c43 -10 98 -31 123 -46 43 -25 159 -132 151 -140 -1 -2 -30 23 -64 55 -97
92 -193 131 -325 131 -133 0 -250 -51 -338 -146 -23 -25 -44 -43 -47 -41 -10
11 120 125 173 152 58 29 149 52 215 54 20 1 70 -8 112 -19z m-49 -30 c32 -5
86 -22 120 -38 64 -30 160 -108 151 -122 -7 -11 -662 -13 -669 -2 -10 16 85
93 151 124 54 25 117 43 173 47 8 0 41 -3 74 -9z m-54 -220 c0 -15 7 -20 25
-20 16 0 25 -6 25 -15 0 -9 -9 -15 -25 -15 -24 0 -25 -3 -25 -55 0 -30 -4 -55
-10 -55 -6 0 -10 27 -10 60 0 53 -2 60 -20 60 -11 0 -20 5 -20 10 0 6 9 10 20
10 13 0 20 7 20 20 0 11 5 20 10 20 6 0 10 -9 10 -20z"/>
<path d="M4502 3224 c-31 -22 -30 -69 3 -90 23 -15 27 -15 50 0 27 18 31 41
13 81 -13 29 -34 32 -66 9z"/>
<path d="M4355 3730 c-126 -29 -138 -35 -130 -68 12 -47 22 -52 68 -36 83 30
225 45 312 34 89 -12 187 -37 196 -51 3 -5 3 -24 1 -44 l-4 -35 -277 -3 -276
-2 283 -3 282 -2 0 33 c0 30 4 34 44 46 65 19 97 12 119 -27 15 -25 17 -36 8
-45 -18 -18 -13 -27 19 -27 35 0 32 27 34 -262 1 -119 5 -220 8 -224 11 -10
38 16 38 36 0 10 7 23 16 30 25 22 14 63 -21 73 l-30 8 0 172 c0 171 0 172
-22 175 -19 3 -23 10 -23 36 0 49 -41 86 -95 86 -26 0 -48 -6 -55 -15 -11 -14
-40 -21 -40 -10 0 2 8 20 17 40 11 24 13 39 7 45 -6 6 -55 21 -110 35 -121 30
-251 32 -369 5z m745 -614 c0 -13 -7 -29 -15 -36 -13 -11 -15 -7 -15 24 0 25
4 36 15 36 9 0 15 -9 15 -24z"/>
<path d="M4120 3613 c-33 -12 -54 -63 -26 -63 8 0 16 -6 19 -12 3 -10 9 -10
26 0 12 7 21 8 21 2 0 -5 7 -10 15 -10 8 0 15 5 15 11 0 6 7 9 15 5 11 -4 15
1 15 19 0 33 27 33 33 0 4 -23 4 -23 3 2 -1 21 -6 28 -21 29 -11 1 -33 6 -48
13 -30 12 -43 13 -67 4z"/>
<path d="M4509 3442 c-25 -11 -7 -49 22 -47 21 1 50 45 29 45 -4 0 -14 2 -22
4 -7 3 -20 2 -29 -2z"/>
<path d="M3463 3305 c0 -22 2 -30 4 -17 2 12 2 30 0 40 -3 9 -5 -1 -4 -23z"/>
<path d="M5230 2967 c0 -8 48 -36 108 -62 97 -45 154 -78 190 -113 22 -20 53
-34 60 -27 7 7 -86 94 -100 95 -4 0 -56 27 -115 60 -108 60 -143 71 -143 47z"/>
<path d="M3543 2768 c-30 -14 -29 -18 12 -58 41 -39 55 -82 55 -164 l0 -58 87
-86 c62 -61 97 -87 122 -93 49 -12 101 -11 101 1 0 5 -22 27 -50 47 -27 21
-73 55 -101 76 -73 55 -91 101 -83 209 6 76 4 85 -16 111 -17 22 -29 27 -63
26 -23 0 -52 -5 -64 -11z"/>
<path d="M5404 2772 c-25 -16 -34 -55 -34 -142 0 -128 -9 -145 -122 -224 -51
-36 -99 -75 -106 -86 -11 -19 -10 -20 25 -20 78 1 105 15 196 104 l87 85 0 68
c0 80 27 144 71 170 16 10 29 20 29 24 0 22 -119 39 -146 21z"/>
<path d="M5000 2566 c0 -58 -4 -85 -12 -88 -7 -2 -43 -2 -80 0 -56 3 -68 7
-73 23 -6 17 -16 19 -94 19 -81 0 -89 -2 -98 -22 -9 -20 -18 -22 -105 -25
l-96 -3 -6 34 c-4 19 -13 37 -21 40 -8 3 -15 15 -15 26 0 19 -5 21 -57 18 -53
-3 -58 -5 -57 -25 0 -16 -5 -23 -18 -23 -13 0 -18 -8 -18 -30 0 -29 -13 -40
-25 -20 -9 15 -51 12 -65 -5 -9 -11 -27 -15 -59 -13 l-46 3 -3 80 c-6 137 -12
96 -12 -79 0 -96 4 -176 10 -187 25 -46 57 -49 482 -49 352 0 403 2 431 17 18
9 37 23 44 32 16 20 18 361 3 361 -6 0 -10 -35 -10 -84z m-818 -127 c16 -8 31
-8 59 1 30 10 44 10 68 0 25 -10 37 -10 62 0 25 11 38 11 66 1 28 -10 40 -10
65 0 24 10 37 10 65 0 28 -10 40 -10 65 0 24 10 37 10 64 0 27 -10 41 -10 69
0 28 10 39 10 60 -1 21 -11 31 -11 65 0 36 12 45 11 78 -5 20 -10 32 -20 25
-22 -6 -2 -24 2 -40 10 -24 13 -31 13 -57 0 -25 -13 -36 -14 -64 -3 -28 10
-42 10 -72 0 -31 -10 -42 -10 -66 3 -25 13 -32 13 -61 -1 -30 -14 -36 -14 -68
1 -33 16 -37 16 -61 1 -22 -15 -30 -15 -64 -4 -31 10 -45 10 -69 0 -25 -10
-37 -10 -62 0 -25 11 -38 11 -65 1 -27 -10 -41 -10 -69 0 -26 10 -40 10 -60 1
-30 -14 -55 -16 -55 -4 0 9 54 28 83 31 10 0 28 -4 39 -10z m0 -50 c16 -8 31
-8 59 1 30 10 44 10 68 0 25 -10 37 -10 62 0 25 11 38 11 66 1 27 -10 41 -10
64 -1 23 10 35 10 60 0 24 -10 38 -10 69 0 31 10 45 10 69 1 23 -10 37 -10 64
0 28 10 41 10 65 0 25 -10 37 -10 66 0 31 11 41 11 72 -4 44 -21 38 -35 -7
-17 -25 11 -38 11 -66 1 -28 -10 -40 -10 -65 0 -24 10 -37 10 -65 0 -28 -10
-40 -10 -65 0 -24 10 -37 10 -65 0 -28 -10 -40 -10 -65 0 -24 10 -37 10 -65 0
-28 -10 -40 -10 -65 0 -24 10 -37 10 -65 0 -28 -10 -40 -10 -65 0 -24 10 -37
10 -64 0 -27 -10 -41 -10 -69 0 -26 10 -40 10 -60 1 -30 -14 -55 -16 -55 -4 0
9 54 28 83 31 10 0 28 -4 39 -10z m0 -50 c16 -8 31 -8 59 1 30 10 44 10 68 0
25 -10 37 -10 62 0 25 11 38 11 66 1 28 -10 40 -10 65 0 24 10 37 10 65 0 27
-10 41 -10 64 0 24 9 38 9 70 -1 30 -10 42 -11 51 -2 15 15 53 15 80 1 16 -8
31 -8 59 1 30 10 44 10 68 0 17 -7 31 -16 31 -21 0 -13 -7 -11 -36 8 -23 15
-28 15 -60 0 -31 -15 -37 -15 -67 -1 -30 15 -37 15 -63 1 -26 -13 -34 -13 -64
-1 -29 13 -38 13 -70 0 -32 -13 -40 -13 -67 1 -28 13 -34 13 -62 -1 -28 -15
-34 -15 -62 -1 -27 15 -35 15 -68 2 -32 -13 -40 -13 -64 0 -23 12 -34 12 -62
2 -28 -11 -42 -11 -70 -1 -29 11 -39 10 -65 -3 -17 -9 -36 -13 -42 -9 -6 4 3
12 23 19 45 17 66 17 91 4z m0 -50 c16 -8 31 -8 59 1 30 10 44 10 68 0 25 -10
37 -10 62 0 25 11 38 11 66 1 28 -10 40 -10 65 0 24 10 37 10 65 0 28 -10 40
-10 65 0 24 10 37 10 64 0 27 -10 41 -10 68 0 27 10 40 10 65 -1 25 -10 37
-10 61 0 28 12 89 6 76 -7 -6 -6 -63 -13 -108 -13 -16 0 -44 0 -63 0 -19 0
-48 0 -65 0 -16 0 -46 0 -65 0 -19 0 -48 0 -65 0 -16 0 -46 0 -65 0 -19 0 -48
0 -65 0 -16 0 -46 0 -65 0 -19 0 -48 0 -65 0 -16 0 -46 0 -65 0 -137 0 -175 3
-175 11 0 19 52 24 82 8z"/>
<path d="M3092 1693 l3 -388 85 0 85 0 5 75 5 75 41 3 c38 3 42 0 80 -50 21
-29 54 -62 72 -74 32 -22 141 -42 161 -29 16 9 14 165 -1 169 -92 24 -104 42
-60 87 57 58 77 113 77 209 0 68 -4 94 -23 131 -31 64 -86 116 -157 150 -58
28 -65 29 -218 29 l-157 0 2 -387z m294 187 c65 -32 90 -99 59 -160 -24 -46
-66 -70 -124 -70 l-51 0 0 118 c0 65 3 122 7 125 13 14 67 7 109 -13z"/>
<path d="M3715 2067 c-3 -6 -4 -181 -3 -387 l3 -375 215 0 215 0 0 85 0 85
-125 5 -125 5 0 55 0 55 117 3 c135 3 132 0 126 107 l-3 60 -100 2 c-150 4
-147 3 -143 71 l3 57 125 5 125 5 3 88 3 87 -216 0 c-164 0 -217 -3 -220 -13z"/>
<path d="M4433 2065 c-226 -70 -332 -325 -229 -550 29 -64 100 -137 166 -170
58 -29 155 -47 235 -43 l60 3 3 88 3 87 -68 0 c-96 0 -141 15 -189 64 -96 95
-79 258 33 327 30 19 57 25 128 29 l90 5 3 88 3 87 -98 -1 c-54 0 -117 -6
-140 -14z"/>
<path d="M4732 1693 l3 -388 85 0 85 0 3 388 2 387 -90 0 -90 0 2 -387z"/>
<path d="M5012 1693 l3 -388 85 0 85 0 5 145 5 145 118 3 117 3 0 84 0 85
-104 0 c-57 0 -111 3 -120 6 -12 5 -16 21 -16 65 l0 59 125 0 124 0 6 33 c4
17 5 57 3 87 l-3 55 -218 3 -217 2 2 -387z"/>
<path d="M5507 2073 c-4 -3 -7 -173 -7 -378 0 -275 3 -374 12 -383 19 -19 412
-17 427 2 7 8 11 40 11 73 -3 99 6 93 -136 93 l-125 0 3 58 3 57 115 5 115 5
3 82 3 82 -118 3 -118 3 -3 63 -3 62 121 0 c120 0 121 0 130 26 11 28 13 114
4 138 -5 14 -34 16 -218 16 -117 0 -216 -3 -219 -7z"/>
<path d="M3092 1098 c2 -75 6 -93 18 -93 9 0 16 11 18 26 3 22 10 28 38 32 48
8 64 23 64 63 0 48 -22 64 -86 64 l-55 0 3 -92z m95 36 c7 -18 -12 -34 -39
-34 -13 0 -18 8 -18 25 0 20 5 25 25 25 14 0 28 -7 32 -16z"/>
<path d="M3402 1098 c3 -79 6 -93 21 -96 13 -3 17 3 17 27 0 45 40 40 54 -6 8
-24 40 -31 51 -13 4 6 -1 22 -9 35 -15 23 -15 27 -1 49 19 29 11 72 -15 86
-10 6 -42 10 -70 10 l-51 0 3 -92z m96 30 c3 -14 -3 -18 -27 -18 -25 0 -31 4
-31 21 0 16 5 20 27 17 17 -2 29 -10 31 -20z"/>
<path d="M3722 1098 l3 -93 60 0 c48 0 60 3 63 17 3 13 -6 17 -40 20 -31 2
-44 8 -46 21 -3 14 4 17 32 17 29 0 36 4 36 20 0 16 -7 20 -36 20 -28 0 -35 3
-32 18 2 12 15 18 46 20 66 5 47 26 -27 30 l-62 3 3 -93z"/>
<path d="M4019 1188 c-8 -52 -8 -151 1 -168 16 -29 34 -20 40 21 4 29 9 35 38
39 46 7 45 24 -1 28 -33 3 -38 6 -35 25 2 18 11 23 46 25 66 5 47 26 -26 30
-34 2 -62 2 -63 0z"/>
<path d="M4312 1098 l3 -93 60 0 c53 0 60 2 60 20 0 15 -8 20 -38 21 -22 1
-41 5 -44 8 -11 11 10 26 38 26 16 0 29 5 29 10 0 6 0 13 0 18 1 4 -14 9 -32
12 -49 7 -44 35 7 36 29 0 41 5 43 17 3 15 -6 17 -63 17 l-66 0 3 -92z"/>
<path d="M4612 1098 c2 -59 7 -93 15 -95 21 -7 30 31 25 110 -4 68 -6 77 -23
77 -18 0 -20 -7 -17 -92z"/>
<path d="M4817 1183 c-14 -13 -6 -22 21 -25 26 -3 27 -5 32 -78 3 -41 8 -74
13 -72 4 1 12 2 17 2 6 0 10 32 10 75 0 73 1 75 25 75 16 0 25 6 25 15 0 12
-14 15 -68 15 -38 0 -72 -3 -75 -7z"/>
<path d="M5120 1116 c0 -69 2 -76 26 -95 15 -12 37 -21 49 -21 12 0 34 9 49
21 24 19 26 26 26 95 0 66 -2 75 -17 72 -14 -2 -19 -17 -23 -67 -6 -71 -25
-96 -54 -72 -12 10 -16 31 -16 77 0 57 -2 64 -20 64 -18 0 -20 -7 -20 -74z"/>
<path d="M5445 1157 c-10 -54 7 -151 28 -155 13 -3 17 3 17 27 0 48 26 42 64
-13 8 -12 19 -17 29 -13 14 5 14 11 6 37 -8 22 -8 38 1 59 9 23 9 34 -1 53
-17 33 -28 38 -86 38 -51 0 -52 -1 -58 -33z m103 -28 c3 -17 -23 -29 -45 -22
-7 3 -13 14 -13 24 0 16 6 20 27 17 16 -2 29 -10 31 -19z"/>
<path d="M5791 1109 c-30 -79 -33 -109 -12 -109 6 0 15 9 21 20 8 14 21 20 45
20 24 0 37 -6 45 -20 11 -21 35 -27 44 -11 3 5 -9 46 -28 92 -28 71 -37 84
-59 87 -23 3 -27 -4 -56 -79z m72 -9 c4 -15 0 -20 -14 -20 -20 0 -23 8 -13 34
7 20 20 13 27 -14z"/>
</g>
</svg>
