<?xml version="1.0" standalone="no"?>
<!DOCTYPE svg PUBLIC "-//W3C//DTD SVG 20010904//EN"
 "http://www.w3.org/TR/2001/REC-SVG-20010904/DTD/svg10.dtd">
<svg version="1.0" xmlns="http://www.w3.org/2000/svg"
 width="274.000000pt" height="137.000000pt" viewBox="0 0 274.000000 137.000000"
 preserveAspectRatio="xMidYMid meet">

<g transform="translate(0.000000,137.000000) scale(0.100000,-0.100000)"
fill="#000000" stroke="none">
<path d="M1626 1163 c24 -101 93 -224 155 -278 19 -17 75 -53 123 -80 154 -86
261 -192 281 -277 6 -23 -4 -17 -64 42 -41 39 -97 81 -133 99 -54 28 -71 31
-150 31 -48 0 -88 -4 -88 -8 0 -5 18 -17 41 -27 40 -19 89 -62 180 -163 55
-60 108 -80 173 -63 49 12 55 8 35 -27 -22 -39 -61 -55 -105 -43 -55 15 -38
-9 31 -44 78 -38 186 -42 250 -8 90 48 129 116 129 226 1 83 9 97 54 97 29 0
28 9 -7 47 -54 59 -115 53 -166 -16 l-29 -38 -25 77 c-66 195 -176 286 -436
361 -120 34 -190 65 -219 98 -26 29 -38 26 -30 -6z"/>
<path d="M416 863 c-3 -3 -6 -25 -6 -47 l0 -41 -38 44 c-48 56 -62 49 -62 -30
0 -46 3 -59 15 -59 11 0 15 11 15 42 l0 42 43 -42 c24 -23 46 -39 50 -36 10
10 9 122 -2 128 -4 3 -11 3 -15 -1z"/>
<path d="M921 856 c-7 -8 -11 -25 -9 -38 2 -19 11 -24 43 -28 27 -3 40 -10 40
-20 0 -11 -12 -15 -48 -14 -56 0 -60 -19 -4 -24 43 -4 77 12 77 36 0 27 -20
42 -57 42 -23 0 -33 5 -33 15 0 11 11 15 41 15 28 0 39 4 37 13 -7 18 -72 21
-87 3z"/>
<path d="M170 807 c0 -60 12 -77 53 -77 54 0 67 15 67 75 0 70 -18 72 -22 3
l-3 -53 -35 0 -35 0 -3 53 c-4 68 -22 68 -22 -1z"/>
<path d="M460 795 c0 -37 4 -65 10 -65 6 0 10 28 10 65 0 37 -4 65 -10 65 -6
0 -10 -28 -10 -65z"/>
<path d="M500 852 c0 -18 51 -122 61 -122 11 0 59 93 59 115 0 29 -18 14 -34
-30 -10 -25 -21 -45 -26 -45 -5 0 -15 19 -22 42 -13 38 -38 64 -38 40z"/>
<path d="M640 795 l0 -65 55 0 c30 0 55 5 55 10 0 6 -20 10 -45 10 -38 0 -45
3 -45 20 0 16 7 20 35 20 19 0 35 5 35 10 0 6 -16 10 -35 10 -24 0 -35 5 -35
15 0 11 11 15 40 15 22 0 40 5 40 10 0 6 -22 10 -50 10 l-50 0 0 -65z"/>
<path d="M770 795 c0 -37 4 -65 10 -65 6 0 10 11 10 25 0 33 26 33 62 -2 30
-29 52 -25 24 6 -15 16 -15 19 -1 31 18 15 20 41 3 58 -7 7 -34 12 -60 12
l-48 0 0 -65z m95 25 c0 -10 -12 -16 -37 -18 -33 -3 -38 0 -38 18 0 18 5 21
38 18 25 -2 37 -8 37 -18z"/>
<path d="M1032 798 c2 -38 8 -63 16 -66 9 -3 12 14 12 62 0 53 -3 66 -15 66
-13 0 -15 -11 -13 -62z"/>
<path d="M1090 795 l0 -65 49 0 c54 0 61 7 61 69 0 48 -14 61 -67 61 l-43 0 0
-65z m88 33 c7 -7 12 -21 12 -33 0 -29 -19 -45 -52 -45 -27 0 -28 2 -28 45 0
43 1 45 28 45 15 0 33 -5 40 -12z"/>
<path d="M1263 848 c-5 -7 -16 -29 -23 -48 -7 -19 -18 -41 -23 -48 -5 -7 -7
-16 -3 -20 4 -4 13 1 20 11 17 23 75 23 92 0 23 -30 17 6 -11 65 -25 53 -35
61 -52 40z m31 -34 c10 -26 7 -34 -14 -34 -11 0 -20 4 -20 9 0 17 12 41 20 41
4 0 11 -7 14 -16z"/>
<path d="M1360 795 l0 -65 46 0 c55 0 73 17 74 71 0 47 -15 59 -72 59 l-48 0
0 -65z m95 0 c0 -39 -1 -40 -37 -43 l-38 -3 0 46 0 46 38 -3 c36 -3 37 -4 37
-43z"/>
<path d="M1510 795 l0 -65 55 0 c30 0 55 5 55 10 0 6 -20 10 -45 10 -38 0 -45
3 -45 20 0 16 7 20 35 20 19 0 35 5 35 10 0 6 -16 10 -35 10 -24 0 -35 5 -35
15 0 11 11 15 40 15 22 0 40 5 40 10 0 6 -22 10 -50 10 l-50 0 0 -65z"/>
<path d="M830 695 c-7 -9 -10 -19 -6 -22 8 -9 38 9 44 25 5 17 -23 15 -38 -3z"/>
<path d="M1261 634 c-28 -23 -31 -31 -31 -85 0 -52 4 -63 26 -84 43 -40 144
-32 144 10 0 8 -18 10 -55 7 -70 -6 -85 6 -85 68 0 62 15 74 85 68 41 -3 55
-1 55 8 0 40 -95 45 -139 8z"/>
<path d="M196 620 c-37 -45 -36 -101 4 -141 27 -27 35 -30 87 -27 45 2 59 7
61 20 3 15 -4 16 -52 11 -71 -7 -86 4 -86 67 0 61 14 73 82 68 42 -2 53 0 53
12 0 11 -15 16 -61 18 -58 3 -63 1 -88 -28z"/>
<path d="M430 624 c-6 -15 -25 -59 -41 -97 -30 -68 -31 -103 -2 -59 13 18 25
22 66 22 33 0 57 -6 69 -17 34 -31 32 -3 -8 85 -43 94 -67 113 -84 66z m54
-66 l15 -38 -45 0 c-41 0 -44 2 -34 19 5 11 15 32 20 47 12 31 21 25 44 -28z"/>
<path d="M540 635 c0 -11 11 -15 40 -15 l40 0 0 -85 c0 -69 3 -85 15 -85 12 0
15 16 15 85 l0 85 35 0 c24 0 35 5 35 15 0 12 -17 15 -90 15 -73 0 -90 -3 -90
-15z"/>
<path d="M751 624 c-31 -39 -29 -117 4 -149 20 -21 34 -25 79 -25 49 0 57 3
81 32 23 28 27 39 23 80 -7 71 -27 88 -104 88 -56 0 -65 -3 -83 -26z m149 -23
c5 -11 10 -34 10 -51 0 -56 -14 -70 -73 -70 -29 0 -58 5 -65 12 -16 16 -16
100 0 116 7 7 36 12 65 12 41 0 54 -4 63 -19z"/>
<path d="M970 550 l0 -100 85 0 c69 0 85 3 85 15 0 12 -14 15 -65 15 l-65 0 0
85 c0 78 -2 85 -20 85 -19 0 -20 -7 -20 -100z"/>
<path d="M1160 550 c0 -82 3 -100 15 -100 12 0 15 18 15 100 0 82 -3 100 -15
100 -12 0 -15 -18 -15 -100z"/>
<path d="M1451 556 c-22 -52 -41 -97 -41 -100 0 -15 29 -4 35 14 5 17 15 20
65 20 49 0 61 -3 70 -20 11 -21 30 -27 30 -10 0 5 -17 50 -37 100 -52 123 -66
123 -122 -4z m95 -33 c-2 -2 -20 -3 -39 -1 l-34 3 20 45 19 45 19 -44 c11 -24
18 -46 15 -48z"/>
<path d="M1435 402 c-42 -8 -60 -66 -29 -96 17 -18 84 -22 84 -6 0 6 -16 10
-36 10 -34 0 -35 1 -32 33 3 29 6 32 36 31 20 -1 32 3 32 11 0 15 -26 23 -55
17z"/>
<path d="M170 345 l0 -55 38 0 c46 0 62 14 62 55 0 41 -16 55 -62 55 l-38 0 0
-55z m78 -2 c3 -31 1 -33 -27 -33 -29 0 -31 3 -31 36 0 33 2 35 28 32 22 -2
28 -8 30 -35z"/>
<path d="M297 393 c-4 -3 -7 -28 -7 -55 l0 -48 45 0 c25 0 45 5 45 10 0 6 -16
10 -35 10 -46 0 -48 27 -2 33 l32 4 -32 1 c-47 3 -45 32 2 32 19 0 35 5 35 10
0 11 -73 14 -83 3z"/>
<path d="M441 343 c1 -32 4 -48 6 -36 3 17 12 23 41 25 34 3 37 6 37 33 0 28
-3 30 -42 33 l-43 3 1 -58z m74 17 c0 -10 -12 -16 -32 -18 -28 -3 -33 0 -33
18 0 18 5 21 33 18 20 -2 32 -8 32 -18z"/>
<path d="M550 345 l0 -55 45 0 c25 0 45 5 45 10 0 6 -16 10 -35 10 -46 0 -48
27 -2 33 l32 4 -32 1 c-47 3 -45 32 2 32 19 0 35 5 35 10 0 6 -20 10 -45 10
l-45 0 0 -55z"/>
<path d="M660 346 c0 -31 5 -56 10 -56 6 0 10 9 10 20 0 26 18 25 47 -2 23
-21 47 -18 25 4 -8 8 -8 15 -1 24 6 7 9 23 7 36 -3 20 -10 23 -50 26 l-48 3 0
-55z m80 19 c0 -10 -10 -15 -30 -15 -20 0 -30 5 -30 15 0 10 10 15 30 15 20 0
30 -5 30 -15z"/>
<path d="M780 345 c0 -30 5 -55 10 -55 6 0 10 17 10 38 l1 37 33 -37 c18 -21
36 -38 40 -38 3 0 6 25 6 55 0 30 -4 55 -10 55 -5 0 -10 -17 -10 -37 l-1 -38
-30 38 c-17 20 -35 37 -40 37 -5 0 -9 -25 -9 -55z"/>
<path d="M915 348 c-14 -28 -22 -54 -19 -57 4 -3 9 0 11 7 5 14 73 17 73 2 0
-5 11 -10 24 -10 21 0 25 5 28 38 l3 37 20 -37 c10 -21 22 -38 26 -38 4 0 15
19 25 43 l18 42 7 -45 6 -45 1 58 c2 67 -11 74 -35 17 -10 -22 -20 -40 -23
-40 -3 0 -13 19 -22 41 -22 53 -41 46 -49 -17 l-5 -49 -23 53 c-13 28 -28 52
-32 52 -5 0 -20 -23 -34 -52z m45 -4 c0 -8 -7 -14 -15 -14 -17 0 -18 2 -9 24
7 18 24 12 24 -10z"/>
<path d="M1167 393 c-4 -3 -7 -28 -7 -55 l0 -49 53 3 52 3 1 40 c0 22 -4 46
-9 53 -10 13 -79 17 -90 5z m73 -28 c0 -10 -10 -15 -30 -15 -20 0 -30 5 -30
15 0 10 10 15 30 15 20 0 30 -5 30 -15z m0 -45 c0 -5 -11 -10 -25 -10 -14 0
-25 5 -25 10 0 6 11 10 25 10 14 0 25 -4 25 -10z"/>
<path d="M1282 348 c3 -52 4 -53 36 -56 18 -2 40 2 48 9 16 13 20 99 4 99 -5
0 -10 -20 -10 -45 0 -43 -1 -45 -30 -45 -29 0 -30 2 -30 45 0 25 -5 45 -11 45
-6 0 -9 -21 -7 -52z"/>
<path d="M1512 388 c-7 -7 -12 -26 -12 -43 0 -17 5 -36 12 -43 18 -18 73 -14
91 6 21 23 21 41 1 70 -17 25 -71 31 -92 10z"/>
</g>
</svg>
